<svg width="64" height="64" viewBox="0 0 64 64" fill="none" xmlns="http://www.w3.org/2000/svg">
  <path d="M32 4L56 18V46L32 60L8 46V18L32 4Z" stroke="url(#g)" stroke-width="2" fill="none"/>
  <path d="M40 20C40 20 36 16 28 16C20 16 14 22 14 32C14 42 20 48 28 48C36 48 40 44 40 44" stroke="url(#g)" stroke-width="3" stroke-linecap="round" fill="none"/>
  <line x1="40" y1="20" x2="50" y2="20" stroke="url(#g)" stroke-width="2" stroke-linecap="round"/>
  <line x1="40" y1="44" x2="50" y2="44" stroke="url(#g)" stroke-width="2" stroke-linecap="round"/>
  <line x1="50" y1="20" x2="50" y2="44" stroke="url(#g)" stroke-width="2" stroke-linecap="round"/>
  <circle cx="40" cy="20" r="2.5" fill="#3B82F6"/>
  <circle cx="50" cy="20" r="2.5" fill="#06B6D4"/>
  <circle cx="40" cy="44" r="2.5" fill="#3B82F6"/>
  <circle cx="50" cy="44" r="2.5" fill="#06B6D4"/>
  <circle cx="50" cy="32" r="2" fill="#22D3EE"/>
  <circle cx="28" cy="32" r="3" fill="url(#g)"/>
  <defs>
    <linearGradient id="g" x1="8" y1="4" x2="56" y2="60" gradientUnits="userSpaceOnUse">
      <stop stop-color="#3B82F6"/><stop offset="1" stop-color="#06B6D4"/>
    </linearGradient>
  </defs>
</svg>
